<svg id="visual" viewBox="0 0 430.4 932" width="430.4" height="932" xmlns="http://www.w3.org/2000/svg" xmlns:xlink="http://www.w3.org/1999/xlink" version="1.1"><path d="M0 289L10.2 303.5C20.3 318 40.7 347 61.2 352.2C81.7 357.3 102.3 338.7 122.8 335.7C143.3 332.7 163.7 345.3 184.2 348.8C204.7 352.3 225.3 346.7 245.8 341.5C266.3 336.3 286.7 331.7 307.2 335.8C327.7 340 348.3 353 368.8 345.5C389.3 338 409.7 310 419.8 296L430 282L430 0L419.8 0C409.7 0 389.3 0 368.8 0C348.3 0 327.7 0 307.2 0C286.7 0 266.3 0 245.8 0C225.3 0 204.7 0 184.2 0C163.7 0 143.3 0 122.8 0C102.3 0 81.7 0 61.2 0C40.7 0 20.3 0 10.2 0L0 0Z" fill="#fa7268"></path><path d="M0 305L10.2 290.8C20.3 276.7 40.7 248.3 61.2 245.7C81.7 243 102.3 266 122.8 264.8C143.3 263.7 163.7 238.3 184.2 229C204.7 219.7 225.3 226.3 245.8 230.7C266.3 235 286.7 237 307.2 238.5C327.7 240 348.3 241 368.8 248.3C389.3 255.7 409.7 269.3 419.8 276.2L430 283L430 0L419.8 0C409.7 0 389.3 0 368.8 0C348.3 0 327.7 0 307.2 0C286.7 0 266.3 0 245.8 0C225.3 0 204.7 0 184.2 0C163.7 0 143.3 0 122.8 0C102.3 0 81.7 0 61.2 0C40.7 0 20.3 0 10.2 0L0 0Z" fill="#ef5f67"></path><path d="M0 203L10.2 207C20.3 211 40.7 219 61.2 213.2C81.7 207.3 102.3 187.7 122.8 190.3C143.3 193 163.7 218 184.2 223.3C204.7 228.7 225.3 214.3 245.8 208.7C266.3 203 286.7 206 307.2 212.8C327.7 219.7 348.3 230.3 368.8 221.8C389.3 213.3 409.7 185.7 419.8 171.8L430 158L430 0L419.8 0C409.7 0 389.3 0 368.8 0C348.3 0 327.7 0 307.2 0C286.7 0 266.3 0 245.8 0C225.3 0 204.7 0 184.2 0C163.7 0 143.3 0 122.8 0C102.3 0 81.7 0 61.2 0C40.7 0 20.3 0 10.2 0L0 0Z" fill="#e34c67"></path><path d="M0 124L10.2 123.3C20.3 122.7 40.7 121.3 61.2 115.5C81.7 109.7 102.3 99.3 122.8 99.7C143.3 100 163.7 111 184.2 125.7C204.7 140.3 225.3 158.7 245.8 155.5C266.3 152.3 286.7 127.7 307.2 118C327.7 108.3 348.3 113.7 368.8 122.5C389.3 131.3 409.7 143.7 419.8 149.8L430 156L430 0L419.8 0C409.7 0 389.3 0 368.8 0C348.3 0 327.7 0 307.2 0C286.7 0 266.3 0 245.8 0C225.3 0 204.7 0 184.2 0C163.7 0 143.3 0 122.8 0C102.3 0 81.7 0 61.2 0C40.7 0 20.3 0 10.2 0L0 0Z" fill="#d53867"></path><path d="M0 95L10.2 87.8C20.3 80.7 40.7 66.3 61.2 68.3C81.7 70.3 102.3 88.7 122.8 87.3C143.3 86 163.7 65 184.2 61.2C204.7 57.3 225.3 70.7 245.8 81.5C266.3 92.3 286.7 100.7 307.2 95C327.7 89.3 348.3 69.7 368.8 66.8C389.3 64 409.7 78 419.8 85L430 92L430 0L419.8 0C409.7 0 389.3 0 368.8 0C348.3 0 327.7 0 307.2 0C286.7 0 266.3 0 245.8 0C225.3 0 204.7 0 184.2 0C163.7 0 143.3 0 122.8 0C102.3 0 81.7 0 61.2 0C40.7 0 20.3 0 10.2 0L0 0Z" fill="#c62368"></path></svg>